<svg xmlns="http://www.w3.org/2000/svg" xmlns:xlink="http://www.w3.org/1999/xlink" width="20" height="20" viewBox="0 0 20 20">
  <defs>
    <clipPath id="clip-path">
      <rect id="Retângulo_2" data-name="Retângulo 2" width="20" height="20" transform="translate(1120 599)" fill="#fff"/>
    </clipPath>
  </defs>
  <g id="Right_Arrow_Icon" data-name="Right Arrow Icon" transform="translate(-1120 -599)" clip-path="url(#clip-path)">
    <g id="right-arrow" transform="translate(1120.595 599)">
      <path id="Caminho_1" data-name="Caminho 1" d="M19.745,8.845,11.163.488a1.7,1.7,0,0,0-2.386,0l-.989.963a1.507,1.507,0,0,0-.5,1.155,1.507,1.507,0,0,0,.5,1.155l3.863,3.774H2.37a1.421,1.421,0,0,0-1.114.481A1.687,1.687,0,0,0,.828,9.178v1.643a1.687,1.687,0,0,0,.428,1.162,1.421,1.421,0,0,0,1.114.481h9.281L7.788,16.226a1.612,1.612,0,0,0,0,2.336l.989.963a1.736,1.736,0,0,0,2.386,0l8.582-8.357A1.567,1.567,0,0,0,20.233,10,1.5,1.5,0,0,0,19.745,8.845Z" transform="translate(-0.828)" fill="#fff"/>
    </g>
  </g>
</svg>
